<svg width="63" height="62" viewBox="0 0 63 62" fill="none" xmlns="http://www.w3.org/2000/svg">
<circle cx="31.9987" cy="31.0002" r="31" fill="#212121"/>
<path d="M45.332 37.5602V41.5602C45.3335 41.9315 45.2575 42.2991 45.1087 42.6393C44.96 42.9796 44.7418 43.285 44.4681 43.536C44.1945 43.7871 43.8715 43.9782 43.5197 44.0972C43.1679 44.2161 42.7952 44.2603 42.4254 44.2269C38.3225 43.7811 34.3814 42.3791 30.9187 40.1335C27.6971 38.0864 24.9658 35.3551 22.9187 32.1335C20.6653 28.6552 19.263 24.6949 18.8254 20.5735C18.792 20.2048 18.8359 19.8332 18.954 19.4824C19.0722 19.1315 19.2621 18.8091 19.5117 18.5357C19.7613 18.2623 20.0651 18.0438 20.4038 17.8942C20.7424 17.7447 21.1085 17.6672 21.4787 17.6669H25.4787C26.1258 17.6605 26.7531 17.8896 27.2437 18.3116C27.7343 18.7335 28.0548 19.3195 28.1454 19.9602C28.3142 21.2403 28.6273 22.4972 29.0787 23.7069C29.2581 24.1841 29.2969 24.7028 29.1906 25.2014C29.0842 25.7 28.8372 26.1577 28.4787 26.5202L26.7854 28.2135C28.6834 31.5516 31.4473 34.3155 34.7854 36.2135L36.4787 34.5202C36.8412 34.1617 37.2989 33.9147 37.7975 33.8083C38.2961 33.702 38.8148 33.7408 39.292 33.9202C40.5017 34.3716 41.7586 34.6847 43.0387 34.8535C43.6864 34.9449 44.2779 35.2712 44.7007 35.7702C45.1236 36.2693 45.3483 36.9063 45.332 37.5602Z" stroke="#1EA0FF" stroke-width="2" stroke-linecap="round" stroke-linejoin="round"/>
</svg>
