<svg width="683" height="497" viewBox="0 0 683 497" fill="none" xmlns="http://www.w3.org/2000/svg">
<g clip-path="url(#clip0_2_86)">
<path d="M397.846 87.6157C410.647 87.6157 421.024 77.2335 421.024 64.4264C421.024 51.6193 410.647 41.2371 397.846 41.2371C385.046 41.2371 374.669 51.6193 374.669 64.4264C374.669 77.2335 385.046 87.6157 397.846 87.6157Z" fill="#F2F2F2"/>
<path d="M577.643 431.772C612.094 405.518 628.548 361.402 618.247 319.318C617.991 318.272 617.721 317.229 617.436 316.188C610.607 291.207 593.711 267.465 569.086 259.483C548.409 252.781 525.84 257.935 504.269 255.27C461.924 250.038 429.095 215.758 405.996 179.868C382.897 143.977 365.144 103.803 334.45 74.1517C283.856 25.2771 201.324 14.7544 138.594 46.5681C75.8648 78.3819 35.9068 148.963 37.6109 219.307C39.3151 289.65 81.0537 356.903 141.668 392.585C163.936 405.693 189.69 414.979 215.321 411.73C237.561 408.91 257.768 396.955 279.903 393.405C314.704 387.824 349.284 403.567 379.384 421.912C409.484 440.257 438.559 462.001 472.764 470.506C505.977 478.764 547.124 455.028 577.643 431.772Z" fill="#F2F2F2"/>
<path d="M528.145 48.0453C527.39 47.5415 526.626 47.0639 525.871 46.5775C504.04 32.6085 480.641 21.2603 456.157 12.7672L450.48 91.1223H414.491V1.32918C412.225 0.8602 409.942 0.417272 407.659 0.000396729V91.1223H364.89C341.346 91.1223 318.765 81.7645 302.117 65.1075C285.468 48.4504 276.115 25.8586 276.115 2.302V2.30192C273.823 2.79695 271.549 3.32674 269.275 3.89125V91.1224H234.44L229.032 16.4062C203.871 26.0606 179.984 38.7566 157.904 54.2115C157.522 54.4721 157.14 54.7413 156.766 55.0019C154.848 56.348 152.956 57.7202 151.072 59.1098V358.035H253.736L251.922 332.892L241.94 194.846H442.972L432.989 332.892L431.175 358.035H532.702V51.0676C531.192 50.0428 529.673 49.0354 528.145 48.0453ZM269.275 172.048H240.29L234.935 97.966H269.275V172.048ZM407.659 172.048H358.979V170.58C358.979 169.875 358.84 169.176 358.57 168.524C358.3 167.873 357.904 167.281 357.405 166.782C356.906 166.284 356.313 165.888 355.661 165.619C355.01 165.35 354.311 165.212 353.606 165.213H332.443C331.738 165.213 331.04 165.352 330.389 165.621C329.739 165.891 329.147 166.286 328.649 166.785C328.151 167.283 327.755 167.875 327.486 168.526C327.217 169.177 327.078 169.876 327.078 170.58V172.048H276.115V97.966H407.659V172.048ZM414.491 172.048V97.966H449.986L444.63 172.048H414.491Z" fill="#3F3D56"/>
<path d="M0 377.178C7.54098 386.117 15.6974 394.519 24.4096 402.32L658.59 403.189C667.303 395.387 675.459 386.986 683 378.046L0 377.178Z" fill="#3F3D56"/>
<path d="M430.059 296.669V371.102C430.059 372.051 430.436 372.96 431.107 373.631C431.777 374.302 432.686 374.679 433.634 374.679H543.881C544.829 374.679 545.738 374.302 546.408 373.631C547.078 372.96 547.455 372.051 547.456 371.102V296.669C547.454 295.721 547.076 294.813 546.406 294.143C545.736 293.474 544.828 293.097 543.881 293.096H433.634C432.687 293.097 431.779 293.474 431.109 294.143C430.438 294.813 430.061 295.721 430.059 296.669Z" fill="#3F3D56"/>
<path d="M432.645 297.595V370.184C432.646 370.691 432.847 371.176 433.205 371.535C433.564 371.893 434.049 372.095 434.556 372.096H542.963C543.469 372.095 543.955 371.893 544.313 371.535C544.671 371.176 544.873 370.691 544.874 370.184V297.595C544.874 297.088 544.672 296.601 544.314 296.242C543.956 295.883 543.47 295.68 542.963 295.679H434.556C434.049 295.68 433.563 295.883 433.204 296.242C432.846 296.601 432.645 297.088 432.645 297.595Z" fill="#1EA0FF"/>
<path d="M427.753 385.618C427.955 385.872 428.212 386.076 428.504 386.216C428.796 386.356 429.116 386.428 429.44 386.426H547.488C547.811 386.426 548.129 386.353 548.421 386.214C548.712 386.075 548.969 385.873 549.172 385.622C549.376 385.371 549.52 385.078 549.596 384.764C549.672 384.45 549.677 384.123 549.611 383.807L547.779 375.098C547.703 374.743 547.539 374.413 547.303 374.137C547.067 373.861 546.765 373.649 546.426 373.52C546.181 373.423 545.919 373.374 545.655 373.374H431.265C431.001 373.374 430.74 373.423 430.494 373.52C430.155 373.649 429.854 373.861 429.617 374.137C429.381 374.413 429.218 374.743 429.142 375.098L427.309 383.807C427.244 384.123 427.25 384.449 427.327 384.763C427.403 385.076 427.549 385.368 427.753 385.618Z" fill="#2F2E41"/>
<path d="M541.605 377.125H544.393C544.627 377.125 544.817 376.935 544.817 376.701V375.366C544.817 375.132 544.627 374.943 544.393 374.943H541.605C541.371 374.943 541.181 375.132 541.181 375.366V376.701C541.181 376.935 541.371 377.125 541.605 377.125Z" fill="#3F3D56"/>
<path d="M534.333 377.125H537.121C537.356 377.125 537.545 376.935 537.545 376.701V375.366C537.545 375.132 537.356 374.943 537.121 374.943H534.333C534.099 374.943 533.909 375.132 533.909 375.366V376.701C533.909 376.935 534.099 377.125 534.333 377.125Z" fill="#3F3D56"/>
<path d="M527.062 377.125H529.85C530.084 377.125 530.274 376.935 530.274 376.701V375.366C530.274 375.132 530.084 374.943 529.85 374.943H527.062C526.828 374.943 526.638 375.132 526.638 375.366V376.701C526.638 376.935 526.828 377.125 527.062 377.125Z" fill="#3F3D56"/>
<path d="M519.79 377.125H522.578C522.812 377.125 523.002 376.935 523.002 376.701V375.366C523.002 375.132 522.812 374.943 522.578 374.943H519.79C519.556 374.943 519.366 375.132 519.366 375.366V376.701C519.366 376.935 519.556 377.125 519.79 377.125Z" fill="#3F3D56"/>
<path d="M512.518 377.125H515.307C515.541 377.125 515.73 376.935 515.73 376.701V375.366C515.73 375.132 515.541 374.943 515.307 374.943H512.518C512.284 374.943 512.095 375.132 512.095 375.366V376.701C512.095 376.935 512.284 377.125 512.518 377.125Z" fill="#3F3D56"/>
<path d="M505.247 377.125H508.035C508.269 377.125 508.459 376.935 508.459 376.701V375.366C508.459 375.132 508.269 374.943 508.035 374.943H505.247C505.013 374.943 504.823 375.132 504.823 375.366V376.701C504.823 376.935 505.013 377.125 505.247 377.125Z" fill="#3F3D56"/>
<path d="M497.975 377.125H500.763C500.997 377.125 501.187 376.935 501.187 376.701V375.366C501.187 375.132 500.997 374.943 500.763 374.943H497.975C497.741 374.943 497.551 375.132 497.551 375.366V376.701C497.551 376.935 497.741 377.125 497.975 377.125Z" fill="#3F3D56"/>
<path d="M490.703 377.125H493.492C493.726 377.125 493.915 376.935 493.915 376.701V375.366C493.915 375.132 493.726 374.943 493.492 374.943H490.703C490.469 374.943 490.28 375.132 490.28 375.366V376.701C490.28 376.935 490.469 377.125 490.703 377.125Z" fill="#3F3D56"/>
<path d="M483.432 377.125H486.22C486.454 377.125 486.644 376.935 486.644 376.701V375.366C486.644 375.132 486.454 374.943 486.22 374.943H483.432C483.198 374.943 483.008 375.132 483.008 375.366V376.701C483.008 376.935 483.198 377.125 483.432 377.125Z" fill="#3F3D56"/>
<path d="M476.16 377.125H478.948C479.182 377.125 479.372 376.935 479.372 376.701V375.366C479.372 375.132 479.182 374.943 478.948 374.943H476.16C475.926 374.943 475.736 375.132 475.736 375.366V376.701C475.736 376.935 475.926 377.125 476.16 377.125Z" fill="#3F3D56"/>
<path d="M468.888 377.125H471.677C471.911 377.125 472.1 376.935 472.1 376.701V375.366C472.1 375.132 471.911 374.943 471.677 374.943H468.888C468.654 374.943 468.465 375.132 468.465 375.366V376.701C468.465 376.935 468.654 377.125 468.888 377.125Z" fill="#3F3D56"/>
<path d="M461.617 377.125H464.405C464.639 377.125 464.829 376.935 464.829 376.701V375.366C464.829 375.132 464.639 374.943 464.405 374.943H461.617C461.383 374.943 461.193 375.132 461.193 375.366V376.701C461.193 376.935 461.383 377.125 461.617 377.125Z" fill="#3F3D56"/>
<path d="M454.345 377.125H457.133C457.367 377.125 457.557 376.935 457.557 376.701V375.366C457.557 375.132 457.367 374.943 457.133 374.943H454.345C454.111 374.943 453.921 375.132 453.921 375.366V376.701C453.921 376.935 454.111 377.125 454.345 377.125Z" fill="#3F3D56"/>
<path d="M447.073 377.125H449.862C450.096 377.125 450.286 376.935 450.286 376.701V375.366C450.286 375.132 450.096 374.943 449.862 374.943H447.073C446.839 374.943 446.65 375.132 446.65 375.366V376.701C446.65 376.935 446.839 377.125 447.073 377.125Z" fill="#3F3D56"/>
<path d="M439.802 377.125H442.59C442.824 377.125 443.014 376.935 443.014 376.701V375.366C443.014 375.132 442.824 374.943 442.59 374.943H439.802C439.568 374.943 439.378 375.132 439.378 375.366V376.701C439.378 376.935 439.568 377.125 439.802 377.125Z" fill="#3F3D56"/>
<path d="M432.53 377.125H435.318C435.552 377.125 435.742 376.935 435.742 376.701V375.366C435.742 375.132 435.552 374.943 435.318 374.943H432.53C432.296 374.943 432.106 375.132 432.106 375.366V376.701C432.106 376.935 432.296 377.125 432.53 377.125Z" fill="#3F3D56"/>
<path d="M541.691 380.763H544.479C544.713 380.763 544.903 380.573 544.903 380.339V379.004C544.903 378.77 544.713 378.58 544.479 378.58H541.691C541.457 378.58 541.267 378.77 541.267 379.004V380.339C541.267 380.573 541.457 380.763 541.691 380.763Z" fill="#3F3D56"/>
<path d="M534.419 380.763H537.207C537.442 380.763 537.631 380.573 537.631 380.339V379.004C537.631 378.77 537.442 378.58 537.207 378.58H534.419C534.185 378.58 533.995 378.77 533.995 379.004V380.339C533.995 380.573 534.185 380.763 534.419 380.763Z" fill="#3F3D56"/>
<path d="M527.148 380.763H529.936C530.17 380.763 530.36 380.573 530.36 380.339V379.004C530.36 378.77 530.17 378.58 529.936 378.58H527.148C526.914 378.58 526.724 378.77 526.724 379.004V380.339C526.724 380.573 526.914 380.763 527.148 380.763Z" fill="#3F3D56"/>
<path d="M519.876 380.763H522.664C522.898 380.763 523.088 380.573 523.088 380.339V379.004C523.088 378.77 522.898 378.58 522.664 378.58H519.876C519.642 378.58 519.452 378.77 519.452 379.004V380.339C519.452 380.573 519.642 380.763 519.876 380.763Z" fill="#3F3D56"/>
<path d="M512.604 380.763H515.392C515.626 380.763 515.816 380.573 515.816 380.339V379.004C515.816 378.77 515.626 378.58 515.392 378.58H512.604C512.37 378.58 512.18 378.77 512.18 379.004V380.339C512.18 380.573 512.37 380.763 512.604 380.763Z" fill="#3F3D56"/>
<path d="M505.332 380.763H508.121C508.355 380.763 508.545 380.573 508.545 380.339V379.004C508.545 378.77 508.355 378.58 508.121 378.58H505.332C505.098 378.58 504.909 378.77 504.909 379.004V380.339C504.909 380.573 505.098 380.763 505.332 380.763Z" fill="#3F3D56"/>
<path d="M498.061 380.763H500.849C501.083 380.763 501.273 380.573 501.273 380.339V379.004C501.273 378.77 501.083 378.58 500.849 378.58H498.061C497.827 378.58 497.637 378.77 497.637 379.004V380.339C497.637 380.573 497.827 380.763 498.061 380.763Z" fill="#3F3D56"/>
<path d="M490.789 380.763H493.578C493.812 380.763 494.001 380.573 494.001 380.339V379.004C494.001 378.77 493.812 378.58 493.578 378.58H490.789C490.555 378.58 490.366 378.77 490.366 379.004V380.339C490.366 380.573 490.555 380.763 490.789 380.763Z" fill="#3F3D56"/>
<path d="M483.518 380.763H486.306C486.54 380.763 486.73 380.573 486.73 380.339V379.004C486.73 378.77 486.54 378.58 486.306 378.58H483.518C483.284 378.58 483.094 378.77 483.094 379.004V380.339C483.094 380.573 483.284 380.763 483.518 380.763Z" fill="#3F3D56"/>
<path d="M476.246 380.763H479.034C479.268 380.763 479.458 380.573 479.458 380.339V379.004C479.458 378.77 479.268 378.58 479.034 378.58H476.246C476.012 378.58 475.822 378.77 475.822 379.004V380.339C475.822 380.573 476.012 380.763 476.246 380.763Z" fill="#3F3D56"/>
<path d="M468.974 380.763H471.763C471.997 380.763 472.186 380.573 472.186 380.339V379.004C472.186 378.77 471.997 378.58 471.763 378.58H468.974C468.74 378.58 468.55 378.77 468.55 379.004V380.339C468.55 380.573 468.74 380.763 468.974 380.763Z" fill="#3F3D56"/>
<path d="M461.703 380.763H464.491C464.725 380.763 464.915 380.573 464.915 380.339V379.004C464.915 378.77 464.725 378.58 464.491 378.58H461.703C461.469 378.58 461.279 378.77 461.279 379.004V380.339C461.279 380.573 461.469 380.763 461.703 380.763Z" fill="#3F3D56"/>
<path d="M454.431 380.763H457.219C457.453 380.763 457.643 380.573 457.643 380.339V379.004C457.643 378.77 457.453 378.58 457.219 378.58H454.431C454.197 378.58 454.007 378.77 454.007 379.004V380.339C454.007 380.573 454.197 380.763 454.431 380.763Z" fill="#3F3D56"/>
<path d="M447.159 380.763H449.948C450.182 380.763 450.371 380.573 450.371 380.339V379.004C450.371 378.77 450.182 378.58 449.948 378.58H447.159C446.925 378.58 446.736 378.77 446.736 379.004V380.339C446.736 380.573 446.925 380.763 447.159 380.763Z" fill="#3F3D56"/>
<path d="M439.888 380.763H442.676C442.91 380.763 443.1 380.573 443.1 380.339V379.004C443.1 378.77 442.91 378.58 442.676 378.58H439.888C439.654 378.58 439.464 378.77 439.464 379.004V380.339C439.464 380.573 439.654 380.763 439.888 380.763Z" fill="#3F3D56"/>
<path d="M432.616 380.763H435.404C435.638 380.763 435.828 380.573 435.828 380.339V379.004C435.828 378.77 435.638 378.58 435.404 378.58H432.616C432.382 378.58 432.192 378.77 432.192 379.004V380.339C432.192 380.573 432.382 380.763 432.616 380.763Z" fill="#3F3D56"/>
<path d="M481.336 385.128H509.575C509.809 385.128 509.999 384.938 509.999 384.704V383.369C509.999 383.135 509.809 382.945 509.575 382.945H481.336C481.102 382.945 480.912 383.135 480.912 383.369V384.704C480.912 384.938 481.102 385.128 481.336 385.128Z" fill="#3F3D56"/>
<path d="M451.418 311.56H448.949C448.201 311.56 447.594 312.167 447.594 312.916C447.594 313.664 448.201 314.271 448.949 314.271H451.418C452.166 314.271 452.773 313.664 452.773 312.916C452.773 312.167 452.166 311.56 451.418 311.56Z" fill="white"/>
<path d="M479.649 311.56H477.181C476.433 311.56 475.826 312.167 475.826 312.916C475.826 313.664 476.433 314.271 477.181 314.271H479.649C480.398 314.271 481.005 313.664 481.005 312.916C481.005 312.167 480.398 311.56 479.649 311.56Z" fill="white"/>
<path d="M487.648 311.56H485.18C484.431 311.56 483.825 312.167 483.825 312.916C483.825 313.664 484.431 314.271 485.18 314.271H487.648C488.397 314.271 489.003 313.664 489.003 312.916C489.003 312.167 488.397 311.56 487.648 311.56Z" fill="white"/>
<path d="M471.97 311.334H456.628C455.88 311.334 455.273 311.941 455.273 312.69C455.273 313.438 455.88 314.045 456.628 314.045H471.97C472.719 314.045 473.325 313.438 473.325 312.69C473.325 311.941 472.719 311.334 471.97 311.334Z" fill="white"/>
<path d="M509.612 311.334H494.271C493.522 311.334 492.915 311.941 492.915 312.69C492.915 313.438 493.522 314.045 494.271 314.045H509.612C510.361 314.045 510.968 313.438 510.968 312.69C510.968 311.941 510.361 311.334 509.612 311.334Z" fill="white"/>
<path d="M458.946 317.68H456.478C455.729 317.68 455.123 318.287 455.123 319.036C455.123 319.784 455.729 320.391 456.478 320.391H458.946C459.695 320.391 460.301 319.784 460.301 319.036C460.301 318.287 459.695 317.68 458.946 317.68Z" fill="white"/>
<path d="M487.178 317.68H484.709C483.961 317.68 483.354 318.287 483.354 319.036C483.354 319.784 483.961 320.391 484.709 320.391H487.178C487.926 320.391 488.533 319.784 488.533 319.036C488.533 318.287 487.926 317.68 487.178 317.68Z" fill="white"/>
<path d="M495.177 317.68H492.708C491.96 317.68 491.353 318.287 491.353 319.036C491.353 319.784 491.96 320.391 492.708 320.391H495.177C495.925 320.391 496.532 319.784 496.532 319.036C496.532 318.287 495.925 317.68 495.177 317.68Z" fill="white"/>
<path d="M479.499 317.454H464.157C463.408 317.454 462.802 318.061 462.802 318.81C462.802 319.558 463.408 320.165 464.157 320.165H479.499C480.247 320.165 480.854 319.558 480.854 318.81C480.854 318.061 480.247 317.454 479.499 317.454Z" fill="white"/>
<path d="M517.141 317.454H501.799C501.051 317.454 500.444 318.061 500.444 318.81C500.444 319.558 501.051 320.165 501.799 320.165H517.141C517.889 320.165 518.496 319.558 518.496 318.81C518.496 318.061 517.889 317.454 517.141 317.454Z" fill="white"/>
<path d="M466.475 323.8H464.006C463.258 323.8 462.651 324.407 462.651 325.156C462.651 325.904 463.258 326.511 464.006 326.511H466.475C467.223 326.511 467.83 325.904 467.83 325.156C467.83 324.407 467.223 323.8 466.475 323.8Z" fill="white"/>
<path d="M494.706 323.8H492.238C491.489 323.8 490.883 324.407 490.883 325.156C490.883 325.904 491.489 326.511 492.238 326.511H494.706C495.455 326.511 496.061 325.904 496.061 325.156C496.061 324.407 495.455 323.8 494.706 323.8Z" fill="white"/>
<path d="M502.705 323.8H500.237C499.488 323.8 498.882 324.407 498.882 325.156C498.882 325.904 499.488 326.511 500.237 326.511H502.705C503.454 326.511 504.06 325.904 504.06 325.156C504.06 324.407 503.454 323.8 502.705 323.8Z" fill="white"/>
<path d="M487.027 323.574H471.685C470.937 323.574 470.33 324.181 470.33 324.93C470.33 325.678 470.937 326.285 471.685 326.285H487.027C487.776 326.285 488.382 325.678 488.382 324.93C488.382 324.181 487.776 323.574 487.027 323.574Z" fill="white"/>
<path d="M524.669 323.574H509.327C508.579 323.574 507.972 324.181 507.972 324.93C507.972 325.678 508.579 326.285 509.327 326.285H524.669C525.418 326.285 526.024 325.678 526.024 324.93C526.024 324.181 525.418 323.574 524.669 323.574Z" fill="white"/>
<path d="M474.003 329.92H471.535C470.786 329.92 470.179 330.527 470.179 331.276C470.179 332.024 470.786 332.631 471.535 332.631H474.003C474.751 332.631 475.358 332.024 475.358 331.276C475.358 330.527 474.751 329.92 474.003 329.92Z" fill="white"/>
<path d="M502.235 329.92H499.766C499.018 329.92 498.411 330.527 498.411 331.276C498.411 332.024 499.018 332.631 499.766 332.631H502.235C502.983 332.631 503.59 332.024 503.59 331.276C503.59 330.527 502.983 329.92 502.235 329.92Z" fill="white"/>
<path d="M510.234 329.92H507.765C507.017 329.92 506.41 330.527 506.41 331.276C506.41 332.024 507.017 332.631 507.765 332.631H510.234C510.982 332.631 511.589 332.024 511.589 331.276C511.589 330.527 510.982 329.92 510.234 329.92Z" fill="white"/>
<path d="M494.556 329.694H479.214C478.465 329.694 477.859 330.301 477.859 331.049C477.859 331.798 478.465 332.405 479.214 332.405H494.556C495.304 332.405 495.911 331.798 495.911 331.049C495.911 330.301 495.304 329.694 494.556 329.694Z" fill="white"/>
<path d="M479.649 354.255H477.181C476.433 354.255 475.826 354.862 475.826 355.611C475.826 356.36 476.433 356.967 477.181 356.967H479.649C480.398 356.967 481.005 356.36 481.005 355.611C481.005 354.862 480.398 354.255 479.649 354.255Z" fill="white"/>
<path d="M487.648 354.255H485.18C484.431 354.255 483.825 354.862 483.825 355.611C483.825 356.36 484.431 356.967 485.18 356.967H487.648C488.397 356.967 489.003 356.36 489.003 355.611C489.003 354.862 488.397 354.255 487.648 354.255Z" fill="white"/>
<path d="M509.612 354.481H494.271C493.522 354.481 492.915 355.088 492.915 355.837C492.915 356.586 493.522 357.193 494.271 357.193H509.612C510.361 357.193 510.968 356.586 510.968 355.837C510.968 355.088 510.361 354.481 509.612 354.481Z" fill="white"/>
<path d="M451.418 354.255H448.949C448.201 354.255 447.594 354.862 447.594 355.611C447.594 356.36 448.201 356.967 448.949 356.967H451.418C452.166 356.967 452.773 356.36 452.773 355.611C452.773 354.862 452.166 354.255 451.418 354.255Z" fill="white"/>
<path d="M471.97 354.481H456.628C455.88 354.481 455.273 355.088 455.273 355.837C455.273 356.586 455.88 357.193 456.628 357.193H471.97C472.719 357.193 473.325 356.586 473.325 355.837C473.325 355.088 472.719 354.481 471.97 354.481Z" fill="white"/>
<path d="M458.946 348.135H456.478C455.729 348.135 455.123 348.742 455.123 349.491C455.123 350.24 455.729 350.847 456.478 350.847H458.946C459.695 350.847 460.301 350.24 460.301 349.491C460.301 348.742 459.695 348.135 458.946 348.135Z" fill="white"/>
<path d="M487.178 348.135H484.709C483.961 348.135 483.354 348.742 483.354 349.491C483.354 350.24 483.961 350.847 484.709 350.847H487.178C487.926 350.847 488.533 350.24 488.533 349.491C488.533 348.742 487.926 348.135 487.178 348.135Z" fill="white"/>
<path d="M495.177 348.135H492.708C491.96 348.135 491.353 348.742 491.353 349.491C491.353 350.24 491.96 350.847 492.708 350.847H495.177C495.925 350.847 496.532 350.24 496.532 349.491C496.532 348.742 495.925 348.135 495.177 348.135Z" fill="white"/>
<path d="M479.499 348.361H464.157C463.408 348.361 462.802 348.968 462.802 349.717C462.802 350.466 463.408 351.073 464.157 351.073H479.499C480.247 351.073 480.854 350.466 480.854 349.717C480.854 348.968 480.247 348.361 479.499 348.361Z" fill="white"/>
<path d="M466.475 342.015H464.006C463.258 342.015 462.651 342.622 462.651 343.371C462.651 344.12 463.258 344.727 464.006 344.727H466.475C467.223 344.727 467.83 344.12 467.83 343.371C467.83 342.622 467.223 342.015 466.475 342.015Z" fill="white"/>
<path d="M494.706 342.015H492.238C491.489 342.015 490.883 342.622 490.883 343.371C490.883 344.12 491.489 344.727 492.238 344.727H494.706C495.455 344.727 496.061 344.12 496.061 343.371C496.061 342.622 495.455 342.015 494.706 342.015Z" fill="white"/>
<path d="M502.705 342.015H500.237C499.488 342.015 498.882 342.622 498.882 343.371C498.882 344.12 499.488 344.727 500.237 344.727H502.705C503.454 344.727 504.06 344.12 504.06 343.371C504.06 342.622 503.454 342.015 502.705 342.015Z" fill="white"/>
<path d="M487.027 342.241H471.685C470.937 342.241 470.33 342.848 470.33 343.597C470.33 344.346 470.937 344.953 471.685 344.953H487.027C487.776 344.953 488.382 344.346 488.382 343.597C488.382 342.848 487.776 342.241 487.027 342.241Z" fill="white"/>
<path d="M474.003 335.895H471.535C470.786 335.895 470.179 336.502 470.179 337.251C470.179 338 470.786 338.607 471.535 338.607H474.003C474.751 338.607 475.358 338 475.358 337.251C475.358 336.502 474.751 335.895 474.003 335.895Z" fill="white"/>
<path d="M502.235 335.895H499.766C499.018 335.895 498.411 336.502 498.411 337.251C498.411 338 499.018 338.607 499.766 338.607H502.235C502.983 338.607 503.59 338 503.59 337.251C503.59 336.502 502.983 335.895 502.235 335.895Z" fill="white"/>
<path d="M510.234 335.895H507.765C507.017 335.895 506.41 336.502 506.41 337.251C506.41 338 507.017 338.607 507.765 338.607H510.234C510.982 338.607 511.589 338 511.589 337.251C511.589 336.502 510.982 335.895 510.234 335.895Z" fill="white"/>
<path d="M494.556 336.121H479.214C478.465 336.121 477.859 336.728 477.859 337.477C477.859 338.226 478.465 338.833 479.214 338.833H494.556C495.304 338.833 495.911 338.226 495.911 337.477C495.911 336.728 495.304 336.121 494.556 336.121Z" fill="white"/>
<path d="M438.294 425.979L426.706 407.652L463.079 378.642L478.092 362.001C480.043 359.839 482.526 358.227 485.295 357.326C488.063 356.425 491.019 356.267 493.867 356.867C496.716 357.468 499.357 358.805 501.527 360.747C503.697 362.688 505.32 365.165 506.233 367.931C507.586 372.029 507.295 376.493 505.421 380.38C503.547 384.268 500.237 387.275 496.189 388.767L472.449 397.517L438.294 425.979Z" fill="#8A565D"/>
<path d="M166.397 293.099V382.171H228.766V293.099C228.767 292.458 228.563 291.834 228.183 291.318C227.804 290.803 227.269 290.422 226.657 290.233C226.368 290.138 226.066 290.091 225.763 290.094H169.409C169.014 290.093 168.622 290.17 168.257 290.321C167.892 290.472 167.56 290.693 167.28 290.972C167.001 291.251 166.779 291.583 166.627 291.948C166.475 292.313 166.397 292.704 166.397 293.099ZM190.737 323.705C190.753 321.949 191.462 320.27 192.709 319.034C193.955 317.798 195.64 317.105 197.395 317.105C199.15 317.105 200.834 317.798 202.081 319.034C203.328 320.27 204.036 321.949 204.053 323.705V334.04C204.044 335.8 203.338 337.486 202.091 338.728C200.843 339.97 199.155 340.667 197.395 340.667C195.635 340.667 193.947 339.97 192.699 338.728C191.451 337.486 190.746 335.8 190.737 334.04V323.705Z" fill="#2F2E41"/>
<path d="M166.206 379.323V387.912C166.207 388.357 166.384 388.783 166.698 389.099C167.011 389.414 167.436 389.593 167.881 389.597H227.282C227.727 389.595 228.153 389.416 228.467 389.1C228.781 388.785 228.957 388.357 228.957 387.912V379.323H166.206Z" fill="#3F3D56"/>
<path d="M68.2809 158.9V321.533C68.2825 323.606 69.1061 325.593 70.5709 327.059C72.0357 328.524 74.0219 329.348 76.0933 329.35H316.978C319.049 329.348 321.035 328.524 322.5 327.059C323.965 325.593 324.788 323.606 324.79 321.533V158.9C324.785 156.829 323.96 154.845 322.496 153.382C321.031 151.918 319.047 151.095 316.978 151.092H76.0933C74.0237 151.095 72.0394 151.918 70.5751 153.382C69.1108 154.845 68.2858 156.829 68.2809 158.9Z" fill="#3F3D56"/>
<path d="M73.9319 160.924V319.527C73.9338 320.634 74.3743 321.696 75.1569 322.479C75.9395 323.262 77.0004 323.703 78.1072 323.705H314.972C316.079 323.703 317.14 323.262 317.923 322.479C318.705 321.696 319.146 320.634 319.148 319.527V160.924C319.148 159.815 318.708 158.751 317.925 157.967C317.142 157.182 316.08 156.74 314.972 156.737H78.1072C76.9991 156.74 75.9372 157.182 75.1544 157.967C74.3717 158.751 73.932 159.815 73.9319 160.924Z" fill="white"/>
<path d="M117.89 389.015C118.131 389.318 118.438 389.561 118.786 389.728C119.135 389.895 119.517 389.981 119.904 389.979H260.823C261.209 389.979 261.589 389.892 261.937 389.726C262.285 389.56 262.591 389.319 262.834 389.019C263.077 388.72 263.25 388.37 263.34 387.995C263.431 387.62 263.437 387.23 263.358 386.853L261.171 376.457C261.08 376.033 260.885 375.638 260.603 375.309C260.321 374.98 259.961 374.727 259.556 374.572C259.263 374.457 258.951 374.398 258.636 374.398H122.083C121.768 374.398 121.456 374.457 121.163 374.572C120.758 374.727 120.398 374.98 120.116 375.309C119.834 375.638 119.639 376.033 119.548 376.457L117.361 386.853C117.283 387.23 117.29 387.619 117.381 387.994C117.473 388.368 117.647 388.717 117.89 389.015Z" fill="#2F2E41"/>
<path d="M307.285 178.586H85.6516C85.4212 178.581 85.202 178.486 85.0409 178.321C84.8798 178.156 84.7896 177.935 84.7896 177.704C84.7896 177.473 84.8798 177.252 85.0409 177.087C85.202 176.922 85.4212 176.827 85.6516 176.822H307.285C307.516 176.827 307.735 176.922 307.896 177.087C308.057 177.252 308.147 177.473 308.147 177.704C308.147 177.935 308.057 178.156 307.896 178.321C307.735 178.486 307.516 178.581 307.285 178.586Z" fill="#3F3D56"/>
<path d="M100.738 172.32C103.591 172.32 105.904 169.954 105.904 167.037C105.904 164.119 103.591 161.754 100.738 161.754C97.8857 161.754 95.5732 164.119 95.5732 167.037C95.5732 169.954 97.8857 172.32 100.738 172.32Z" fill="#3F3D56"/>
<path d="M118.582 172.32C121.435 172.32 123.747 169.954 123.747 167.037C123.747 164.119 121.435 161.754 118.582 161.754C115.729 161.754 113.417 164.119 113.417 167.037C113.417 169.954 115.729 172.32 118.582 172.32Z" fill="#3F3D56"/>
<path d="M136.426 172.32C139.279 172.32 141.591 169.954 141.591 167.037C141.591 164.119 139.279 161.754 136.426 161.754C133.573 161.754 131.261 164.119 131.261 167.037C131.261 169.954 133.573 172.32 136.426 172.32Z" fill="#3F3D56"/>
<path d="M296.54 163.06H283.867C283.616 163.066 283.378 163.17 283.203 163.349C283.028 163.528 282.93 163.769 282.93 164.02C282.93 164.271 283.028 164.511 283.203 164.691C283.378 164.87 283.616 164.974 283.867 164.979H296.54C296.793 164.976 297.033 164.873 297.21 164.694C297.387 164.514 297.486 164.272 297.486 164.02C297.486 163.768 297.387 163.526 297.21 163.346C297.033 163.166 296.793 163.064 296.54 163.06Z" fill="#3F3D56"/>
<path d="M296.54 166.664H283.867C283.616 166.67 283.378 166.773 283.202 166.953C283.027 167.132 282.929 167.373 282.929 167.624C282.929 167.875 283.027 168.116 283.202 168.295C283.378 168.475 283.616 168.578 283.867 168.584H296.54C296.793 168.581 297.034 168.478 297.211 168.299C297.389 168.119 297.488 167.877 297.488 167.624C297.488 167.372 297.389 167.129 297.211 166.95C297.034 166.77 296.793 166.667 296.54 166.664Z" fill="#3F3D56"/>
<path d="M296.54 170.269H283.867C283.616 170.274 283.378 170.378 283.203 170.557C283.028 170.737 282.93 170.978 282.93 171.228C282.93 171.479 283.028 171.72 283.203 171.899C283.378 172.078 283.616 172.182 283.867 172.188H296.54C296.793 172.184 297.033 172.082 297.21 171.902C297.387 171.722 297.486 171.48 297.486 171.228C297.486 170.976 297.387 170.734 297.21 170.554C297.033 170.375 296.793 170.272 296.54 170.269Z" fill="#3F3D56"/>
<path d="M602.077 383.092C602.459 384.206 603.185 385.171 604.149 385.846C605.113 386.522 606.267 386.875 607.444 386.854L630.44 386.262C631.626 386.239 632.772 385.832 633.708 385.103C634.644 384.374 635.319 383.362 635.632 382.217L638.886 347.402C640.041 347.925 641.298 348.183 642.565 348.158C643.666 348.13 644.751 347.886 645.757 347.439C646.764 346.992 647.672 346.351 648.431 345.552C649.19 344.754 649.785 343.814 650.181 342.785C650.576 341.757 650.766 340.661 650.738 339.559C650.711 338.458 650.466 337.373 650.019 336.365C649.573 335.358 648.932 334.449 648.134 333.69C647.336 332.93 646.396 332.336 645.368 331.94C644.34 331.544 643.245 331.354 642.144 331.382C641.637 331.38 641.132 331.433 640.637 331.539C640.098 330.956 639.443 330.492 638.715 330.177C637.986 329.863 637.199 329.704 636.406 329.712L601.032 330.626C600.739 330.637 600.447 330.673 600.16 330.735C599.384 330.879 598.648 331.188 598.002 331.641C597.356 332.095 596.814 332.681 596.413 333.361C596.012 334.041 595.762 334.799 595.678 335.584C595.595 336.369 595.681 337.163 595.93 337.912L602.077 383.092ZM639.553 345.038L641.869 336.741C642.132 335.783 642.139 334.772 641.887 333.811C641.999 333.81 642.098 333.757 642.211 333.757C643.798 333.724 645.334 334.322 646.482 335.421C647.629 336.519 648.294 338.028 648.332 339.617C648.369 341.205 647.775 342.744 646.68 343.895C645.585 345.046 644.079 345.715 642.491 345.757C641.465 345.789 640.449 345.54 639.553 345.038Z" fill="#2F2E41"/>
<path d="M600.16 330.734C600.913 335.046 609.386 338.077 619.574 337.55C628.943 337.118 636.603 333.826 638.007 329.926C637.487 329.772 636.947 329.7 636.406 329.712L601.032 330.626C600.739 330.637 600.447 330.673 600.16 330.734Z" fill="#3F3D56"/>
<path d="M621.442 363.961C621.488 363.949 621.533 363.93 621.573 363.903L626.567 360.633C626.627 360.594 626.677 360.54 626.711 360.476C626.745 360.413 626.763 360.342 626.763 360.27C626.763 360.198 626.745 360.127 626.711 360.063C626.677 360 626.627 359.946 626.567 359.907L621.376 356.505C621.329 356.474 621.275 356.452 621.219 356.441C621.163 356.43 621.105 356.43 621.049 356.442C620.994 356.453 620.94 356.476 620.893 356.508C620.846 356.54 620.805 356.581 620.774 356.629C620.743 356.677 620.721 356.73 620.711 356.787C620.7 356.843 620.701 356.9 620.712 356.956C620.724 357.012 620.747 357.065 620.779 357.112C620.811 357.16 620.853 357.2 620.901 357.231L625.537 360.269L621.098 363.177C621.012 363.233 620.948 363.318 620.919 363.416C620.89 363.515 620.897 363.621 620.938 363.715C620.979 363.809 621.052 363.885 621.145 363.93C621.237 363.975 621.342 363.986 621.442 363.961H621.442Z" fill="#1EA0FF"/>
<path d="M613.554 364.325C613.638 364.304 613.713 364.258 613.771 364.194C613.829 364.129 613.866 364.049 613.877 363.963C613.889 363.877 613.875 363.79 613.837 363.713C613.799 363.635 613.738 363.57 613.663 363.527L609.06 360.887L613.509 357.58C613.555 357.546 613.594 357.504 613.623 357.455C613.652 357.406 613.671 357.352 613.68 357.295C613.688 357.239 613.685 357.182 613.671 357.126C613.657 357.071 613.633 357.019 613.599 356.973C613.565 356.927 613.522 356.889 613.473 356.86C613.424 356.83 613.37 356.811 613.314 356.803C613.258 356.794 613.2 356.797 613.145 356.811C613.09 356.825 613.038 356.85 612.992 356.884L608.011 360.586C607.953 360.629 607.906 360.685 607.876 360.751C607.845 360.816 607.832 360.888 607.836 360.96C607.84 361.032 607.862 361.102 607.9 361.163C607.938 361.224 607.991 361.275 608.053 361.311L613.231 364.281C613.329 364.337 613.445 364.353 613.554 364.325Z" fill="#1EA0FF"/>
<path d="M620.945 366.827C620.987 366.817 621.027 366.8 621.064 366.777C621.113 366.747 621.155 366.708 621.189 366.662C621.222 366.616 621.247 366.564 621.26 366.509C621.274 366.453 621.276 366.396 621.267 366.339C621.259 366.283 621.239 366.229 621.209 366.18L614.13 354.535C614.07 354.437 613.973 354.366 613.862 354.339C613.75 354.312 613.632 354.331 613.534 354.391C613.435 354.451 613.365 354.547 613.338 354.659C613.31 354.771 613.329 354.889 613.388 354.987L620.468 366.632C620.516 366.711 620.588 366.773 620.674 366.808C620.76 366.843 620.855 366.85 620.945 366.827Z" fill="#1EA0FF"/>
<path d="M222.95 226.526H184.59C183.025 226.526 181.756 227.795 181.756 229.361V233.111C181.756 234.676 183.025 235.946 184.59 235.946H222.95C224.515 235.946 225.783 234.676 225.783 233.111V229.361C225.783 227.795 224.515 226.526 222.95 226.526Z" fill="#1EA0FF"/>
<path d="M245.31 245.365H162.23C160.665 245.365 159.397 246.634 159.397 248.2V251.949C159.397 253.515 160.665 254.784 162.23 254.784H245.31C246.874 254.784 248.143 253.515 248.143 251.949V248.2C248.143 246.634 246.874 245.365 245.31 245.365Z" fill="#E6E6E6"/>
<path d="M245.31 264.204H162.23C160.665 264.204 159.397 265.473 159.397 267.039V270.788C159.397 272.354 160.665 273.623 162.23 273.623H245.31C246.874 273.623 248.143 272.354 248.143 270.788V267.039C248.143 265.473 246.874 264.204 245.31 264.204Z" fill="#E6E6E6"/>
<path d="M252.352 327.287L252.54 327.882L252.55 327.901L258.214 345.131L264.73 364.985L276.99 402.296L277.108 408.092V408.112L278.019 454.737L275.494 461.058L278.336 471.421C278.336 471.421 277.029 455.756 270.018 464.752C266.047 469.864 261.403 475.095 257.591 479.999C263.146 482.248 268.79 484.283 274.524 486.102C275.762 486.499 277.009 486.875 278.257 487.252C278.524 487.331 278.792 487.41 279.059 487.489C298.065 493.113 317.713 496.273 337.523 496.891C338.553 496.921 339.563 496.941 340.543 496.961C340.89 496.971 341.227 496.981 341.563 496.981C342.672 496.991 343.772 497 344.881 497C347.119 497 349.347 496.967 351.565 496.901C367.982 496.438 384.304 494.23 400.255 490.313C400.146 483.724 399.849 476.026 399.423 467.803C399.225 463.771 394.779 459.402 394.512 455.181C394.323 452.011 398.314 449.029 398.106 445.809C396.76 425.984 395.076 433.594 393.828 419.555C393.7 418.178 393.581 416.86 393.472 415.602C392.67 406.586 392.115 400.949 392.115 400.949L397.443 367.353L405.81 314.606L405.167 313.546L404.444 313.189L360.309 291.333L357.912 285.19C357.214 283.421 356.003 281.901 354.434 280.825C352.865 279.75 351.011 279.169 349.109 279.157L320.035 279.038C318.527 279.031 317.038 279.384 315.693 280.068C314.348 280.753 313.185 281.748 312.302 282.971L304.429 293.879L252.352 327.287Z" fill="#3F3D56"/>
<path d="M283.693 393.994L277.108 408.092L272.613 417.722L264.879 458.234L261.007 462.346L257.69 447.79L222.97 455.503C221.831 449.172 222.665 455.717 221.962 448.772C222.16 448.574 222.368 448.376 222.576 448.178C223.13 447.663 223.596 447.177 223.586 446.712C223.19 422.755 224.378 381.986 234.3 357.287C235.854 353.254 237.903 349.43 240.4 345.903C240.598 345.636 240.786 345.368 240.974 345.101C245.549 338.691 248.441 332.38 252.54 327.892V327.882C252.566 327.861 252.589 327.838 252.61 327.812C252.625 327.805 252.638 327.795 252.649 327.783L280.812 312.842L282.02 346.805L282.881 371.217L283.693 393.994Z" fill="#3F3D56"/>
<path d="M385.242 397.998L393.468 415.607L396.339 421.739L404.07 462.247L407.93 466.349L411.255 451.797L412.817 451.476L440.993 445.638L449.205 471.733C451.056 468.647 451.785 465.017 451.269 461.455C450.753 457.894 449.024 454.62 446.374 452.187C445.813 451.679 445.346 451.185 445.359 450.717C445.827 422.541 444.104 371.091 428.547 349.915C423.607 343.195 420.642 336.502 416.329 331.826C416.316 331.812 416.316 331.799 416.302 331.799L405.806 314.605L405.165 313.549L404.444 313.188L385.242 397.998Z" fill="#3F3D56"/>
<path d="M335.412 270.76C356.774 270.76 374.091 253.434 374.091 232.061C374.091 210.689 356.774 193.363 335.412 193.363C314.05 193.363 296.733 210.689 296.733 232.061C296.733 253.434 314.05 270.76 335.412 270.76Z" fill="#8A565D"/>
<path d="M387.691 205.031C387.391 204.71 387.03 204.454 386.629 204.276C386.227 204.098 385.795 204.004 385.356 203.997L385.938 202.382C386.127 201.873 386.179 201.323 386.086 200.788C385.993 200.253 385.76 199.752 385.41 199.336C385.061 198.921 384.607 198.606 384.095 198.424C383.584 198.242 383.033 198.199 382.5 198.3L380.382 198.708L380.582 197.292C380.658 196.765 380.596 196.227 380.402 195.731C380.208 195.235 379.888 194.798 379.473 194.463C379.059 194.129 378.565 193.908 378.039 193.822C377.514 193.736 376.975 193.789 376.476 193.975C376.022 194.154 375.534 194.228 375.047 194.194C374.56 194.159 374.087 194.016 373.663 193.775C373.237 193.541 372.868 193.217 372.58 192.826C372.292 192.434 372.093 191.985 371.997 191.508L371.259 187.947L371.181 187.756C367.587 181.764 360.677 177.404 352.222 175.806C344.696 174.373 336.979 175.102 329.54 175.789C326.589 176.067 323.256 176.379 320.478 178.081C318.117 179.54 316.12 182.459 316.528 185.403C309.193 183.153 301.329 187.643 297.431 193.306C292.813 200.045 292.058 208.487 291.936 215.088C291.606 230.703 294.827 243.479 301.485 253.067C301.971 253.762 302.092 255.212 303.056 255.698L302.856 255.377C303.933 255.915 305.026 256.784 304.618 257.713C303.447 260.388 311.233 266.303 316.719 268.257C326.728 271.826 340.035 271.522 349.393 270.237L349.722 268.022C353.099 267.562 355.478 266.685 356.146 265.313C357.327 264.305 358.334 263.402 359.21 262.568L359.219 262.559C359.236 262.542 359.271 262.516 359.288 262.499C363.516 258.443 364.497 256.133 364.939 252.615C365.365 249.167 364.61 245.667 363.837 242.515C380.104 245.033 357.431 225.18 372.587 221.341C372.761 221.287 372.938 221.244 373.116 221.211C373.559 221.106 374.002 221.002 374.427 220.881C376.477 220.324 378.441 219.485 380.26 218.388C384.497 215.809 385.894 212.387 388.082 208.531C388.397 207.982 388.53 207.346 388.459 206.717C388.389 206.087 388.12 205.497 387.691 205.031Z" fill="#2F2E41"/>
<path d="M472.213 400.754C472.204 402.273 472.187 404.401 472.118 407.033C472.109 407.397 472.1 407.771 472.092 408.153C471.979 412.991 471.866 417.046 471.684 421.554C471.675 421.866 471.666 422.17 471.649 422.483C471.406 428.771 471.024 436.092 470.364 447.687C469.14 469.104 467.005 450.631 464.861 458.143C464.757 458.517 464.644 458.96 464.54 459.481C464.215 461.371 463.667 463.217 462.908 464.978C461.77 465.656 460.599 466.307 459.444 466.959C456.154 468.791 452.812 470.554 449.444 472.23C447.552 473.168 445.651 474.089 443.741 474.975C443.437 475.114 443.142 475.253 442.847 475.383C433.068 479.909 422.989 483.756 412.682 486.899C410.668 487.507 408.663 488.098 406.632 488.645C404.514 489.235 402.396 489.791 400.252 490.312C384.301 494.23 367.98 496.44 351.563 496.904C349.349 496.974 347.118 497 344.879 497C343.768 497 342.674 496.991 341.563 496.982C341.224 496.982 340.886 496.974 340.547 496.965C339.566 496.939 338.551 496.921 337.526 496.895C317.716 496.277 298.068 493.116 279.063 487.49L278.256 487.255C277.006 486.873 275.764 486.5 274.523 486.1C268.794 484.285 263.149 482.253 257.587 480.003C253.343 478.292 249.147 476.457 245.001 474.497C244.963 474.487 244.927 474.469 244.897 474.445C244.029 474.045 243.152 473.629 242.284 473.203C242.171 473.142 242.049 473.081 241.928 473.021C238.69 471.44 235.487 469.784 232.319 468.053C229.654 461.93 225.904 460.757 223.577 455.373C222.9 453.773 222.411 452.1 222.119 450.388C222.119 450.37 222.11 450.353 222.11 450.327C222.353 453.558 221.077 444.595 222.102 450.292C222.093 450.188 222.084 450.075 222.076 449.945C222.049 449.632 222.015 449.25 221.963 448.772C218.985 419.687 219.176 386.423 217.883 359.014C217.796 357.242 217.706 355.546 217.614 353.925C217.588 353.386 217.553 352.856 217.518 352.335C217.579 352.179 217.648 352.014 217.727 351.858C217.743 351.812 217.764 351.769 217.787 351.727C217.813 351.673 217.842 351.621 217.874 351.571C217.892 351.545 217.918 351.51 217.935 351.484C217.948 351.454 217.962 351.425 217.978 351.397C218.056 351.276 218.143 351.145 218.239 351.024C218.282 350.972 218.317 350.928 218.36 350.885C218.39 350.84 218.425 350.8 218.464 350.763C218.491 350.722 218.523 350.684 218.56 350.65C218.595 350.616 218.629 350.572 218.673 350.529C218.691 350.501 218.715 350.478 218.742 350.459C218.811 350.38 218.886 350.308 218.968 350.242C219.278 349.957 219.608 349.696 219.957 349.461C220.079 349.382 220.209 349.304 220.331 349.217C221.206 348.694 222.127 348.252 223.082 347.897C223.412 347.776 223.742 347.663 224.098 347.541C224.228 347.506 224.35 347.463 224.48 347.42C224.671 347.359 224.862 347.298 225.062 347.255C226.051 346.959 227.119 346.707 228.273 346.473C228.412 346.447 228.56 346.421 228.707 346.386C228.916 346.343 229.133 346.308 229.35 346.273C229.645 346.221 229.949 346.169 230.253 346.117C232.831 345.709 235.756 345.405 238.985 345.205C239.289 345.188 239.593 345.17 239.897 345.153C240.253 345.135 240.608 345.118 240.973 345.101C241.277 345.083 241.589 345.075 241.902 345.066C242.206 345.049 242.518 345.04 242.839 345.031C243.716 345.005 244.619 344.979 245.539 344.962C248.16 344.91 250.921 344.927 253.82 344.988C255.166 345.023 256.537 345.057 257.943 345.118C258.039 345.118 258.126 345.127 258.212 345.127C259.436 345.17 260.669 345.222 261.936 345.292C262.822 345.335 263.716 345.379 264.61 345.431C265.452 345.483 266.303 345.535 267.162 345.596C267.83 345.631 268.499 345.683 269.176 345.726C269.749 345.769 270.322 345.813 270.895 345.848L271.676 345.9C272.101 345.934 272.527 345.961 272.961 346.004C273.916 346.082 274.87 346.16 275.843 346.238C276.806 346.325 277.787 346.412 278.768 346.499C279.749 346.586 280.738 346.681 281.728 346.777C281.832 346.786 281.928 346.794 282.023 346.803C282.926 346.899 283.829 346.985 284.74 347.081C284.948 347.098 285.165 347.116 285.374 347.142C286.243 347.229 287.129 347.331 288.006 347.425C288.275 347.454 288.543 347.482 288.812 347.511C289.499 347.586 290.177 347.651 290.868 347.732C291.78 347.836 292.709 347.932 293.612 348.054C294.315 348.132 295.018 348.21 295.721 348.297C296.823 348.427 297.943 348.566 299.063 348.714C299.488 348.766 299.914 348.818 300.339 348.879C303.533 349.278 306.762 349.721 310.044 350.181C315.018 350.885 320.07 351.649 325.156 352.474C330.252 353.299 335.376 354.171 340.53 355.088C341.832 355.323 343.134 355.557 344.445 355.8C345.035 355.913 345.625 356.026 346.215 356.139C347.222 356.322 348.229 356.513 349.236 356.704C350.243 356.895 351.25 357.086 352.257 357.286C353.455 357.52 354.662 357.755 355.859 357.989C363.75 359.552 371.597 361.22 379.253 362.966C380.512 363.252 381.771 363.547 383.021 363.834C385.521 364.416 387.998 365.006 390.451 365.606C391.128 365.762 391.797 365.927 392.465 366.092C394.132 366.509 395.798 366.926 397.439 367.351L397.726 367.43C398.932 367.725 400.113 368.029 401.293 368.341C404.08 369.071 406.82 369.809 409.514 370.556C411.302 371.051 413.07 371.552 414.818 372.059C417.43 372.814 419.991 373.578 422.482 374.351C423.099 374.542 423.715 374.734 424.323 374.916C426.146 375.48 427.942 376.054 429.687 376.627C431.076 377.078 432.43 377.539 433.767 377.999C435.104 378.459 436.415 378.92 437.699 379.38C438.524 379.675 439.34 379.988 440.156 380.283C441.328 380.717 442.482 381.152 443.611 381.586C443.958 381.716 444.297 381.855 444.635 381.985C444.852 382.081 445.06 382.159 445.269 382.246C445.677 382.411 446.093 382.567 446.493 382.732C446.901 382.889 447.3 383.054 447.699 383.227C448.09 383.384 448.489 383.549 448.871 383.714C449.262 383.87 449.644 384.035 450.026 384.209C450.347 384.339 450.659 384.478 450.963 384.617C451.579 384.886 452.196 385.155 452.795 385.433C453.09 385.572 453.385 385.703 453.68 385.842L454.357 386.154C454.453 386.206 454.548 386.25 454.644 386.293C454.861 386.397 455.086 386.51 455.303 386.614C455.807 386.849 456.302 387.101 456.788 387.335C457.439 387.665 458.072 387.995 458.68 388.317C459.296 388.647 459.895 388.977 460.468 389.298C460.564 389.35 460.651 389.402 460.746 389.454C460.876 389.524 461.007 389.602 461.137 389.672C461.579 389.923 462.005 390.184 462.43 390.436C463.263 390.948 464.053 391.452 464.791 391.956C464.956 392.069 465.112 392.181 465.277 392.286C465.824 392.676 466.345 393.059 466.831 393.449C466.831 393.458 466.831 393.458 466.84 393.458C467.005 393.58 467.161 393.71 467.317 393.832C467.447 393.953 467.586 394.057 467.717 394.179C468.168 394.57 468.585 394.943 468.967 395.325C469.095 395.443 469.216 395.568 469.331 395.699C469.382 395.741 469.428 395.787 469.47 395.838C469.644 396.011 469.8 396.185 469.947 396.359C469.97 396.383 469.991 396.409 470.008 396.437C470.217 396.68 470.408 396.923 470.59 397.167C470.677 397.288 470.772 397.41 470.85 397.531C470.954 397.679 471.059 397.835 471.145 397.983C471.223 398.105 471.293 398.235 471.362 398.356C471.547 398.669 471.703 398.998 471.831 399.338C471.929 399.568 472.007 399.807 472.065 400.05C472.131 400.281 472.181 400.516 472.213 400.754Z" fill="#2F2E41"/>
<path opacity="0.2" d="M472.213 400.754C472.204 402.273 472.187 404.401 472.118 407.033C472.109 407.397 472.092 407.771 472.083 408.153C471.996 411.844 471.866 416.404 471.684 421.554C471.675 421.867 471.666 422.17 471.649 422.483C471.406 428.771 471.024 436.092 470.364 447.687C469.14 469.104 467.005 450.631 464.861 458.143C458.906 454.478 452.378 450.64 445.399 446.697C444.14 445.984 442.87 445.269 441.588 444.551C427.63 436.761 412.04 428.597 395.764 420.512C395.121 420.19 394.47 419.869 393.828 419.556C356.545 401.118 315.851 383.184 282.882 371.216C276.52 368.906 270.443 366.822 264.732 364.989C252.7 361.142 242.301 358.449 234.298 357.286C225.964 356.07 220.209 356.504 217.883 359.014C217.796 357.242 217.706 355.546 217.614 353.925C217.579 353.386 217.544 352.856 217.51 352.335C217.563 352.192 217.633 352.056 217.7 351.918C217.71 351.898 217.717 351.877 217.727 351.858C217.743 351.813 217.763 351.769 217.787 351.727C217.813 351.673 217.842 351.621 217.874 351.571C217.902 351.509 217.937 351.451 217.978 351.397C218.056 351.276 218.143 351.145 218.239 351.024C218.309 350.933 218.384 350.846 218.464 350.763C218.491 350.721 218.523 350.683 218.56 350.65C218.595 350.616 218.629 350.572 218.673 350.529C218.691 350.501 218.715 350.478 218.742 350.459C218.811 350.38 218.886 350.308 218.968 350.242C219.278 349.957 219.608 349.696 219.957 349.461C220.079 349.382 220.209 349.304 220.331 349.217C221.205 348.694 222.127 348.252 223.082 347.897C223.412 347.776 223.742 347.663 224.098 347.541C224.228 347.506 224.35 347.463 224.48 347.42C224.671 347.359 224.862 347.298 225.062 347.255C226.051 346.959 227.119 346.707 228.273 346.473C228.621 346.403 228.985 346.334 229.35 346.273C229.645 346.221 229.949 346.169 230.253 346.117C232.831 345.709 235.756 345.405 238.985 345.205C239.289 345.188 239.593 345.17 239.897 345.153C240.252 345.135 240.608 345.118 240.973 345.101C241.277 345.083 241.589 345.075 241.902 345.066C242.206 345.049 242.518 345.04 242.839 345.031C243.716 345.005 244.619 344.979 245.539 344.962C248.16 344.918 250.921 344.936 253.82 344.996C255.166 345.023 256.537 345.066 257.943 345.127C258.03 345.127 258.126 345.135 258.212 345.135C259.436 345.17 260.678 345.231 261.936 345.292C262.822 345.335 263.716 345.379 264.61 345.431C265.452 345.483 266.303 345.535 267.162 345.596C267.83 345.63 268.499 345.683 269.176 345.726C269.749 345.769 270.322 345.813 270.895 345.848C271.58 345.9 272.266 345.952 272.961 346.004C273.915 346.082 274.87 346.16 275.843 346.238C276.806 346.325 277.787 346.412 278.768 346.499C279.749 346.586 280.738 346.681 281.728 346.777C281.832 346.786 281.928 346.794 282.023 346.803C282.926 346.899 283.829 346.985 284.74 347.081C289.792 347.593 294.992 348.193 300.339 348.879C303.533 349.287 306.768 349.724 310.044 350.19C315.018 350.893 320.07 351.658 325.157 352.474C330.252 353.299 335.376 354.171 340.53 355.088C341.832 355.323 343.134 355.557 344.445 355.8C346.042 356.096 347.639 356.397 349.236 356.704C350.243 356.895 351.25 357.086 352.257 357.286C353.455 357.52 354.662 357.755 355.859 357.989C363.75 359.552 371.597 361.22 379.253 362.966C380.512 363.252 381.771 363.547 383.021 363.834C385.521 364.416 387.998 365.006 390.451 365.606C391.128 365.771 391.797 365.936 392.465 366.101C394.141 366.518 395.799 366.935 397.439 367.351V367.36C397.535 367.377 397.63 367.404 397.726 367.43C398.924 367.734 400.113 368.038 401.293 368.35C404.08 369.08 406.82 369.815 409.514 370.556C411.302 371.06 413.073 371.555 414.818 372.059C417.43 372.823 419.991 373.587 422.482 374.351C423.099 374.542 423.715 374.734 424.323 374.916C426.146 375.489 427.934 376.059 429.687 376.627C431.076 377.078 432.43 377.539 433.767 377.999C435.104 378.459 436.415 378.92 437.699 379.38C438.533 379.675 439.349 379.979 440.156 380.275C441.337 380.709 442.482 381.143 443.611 381.586C443.958 381.716 444.297 381.855 444.635 381.985C445.269 382.229 445.885 382.48 446.493 382.732C446.901 382.889 447.3 383.054 447.699 383.227C448.09 383.384 448.489 383.549 448.871 383.714C449.262 383.87 449.644 384.035 450.026 384.209C450.347 384.339 450.659 384.478 450.963 384.617C451.58 384.886 452.196 385.155 452.795 385.433C453.09 385.572 453.385 385.703 453.68 385.842L454.357 386.154C454.453 386.206 454.548 386.25 454.644 386.293C455.382 386.641 456.093 386.988 456.788 387.335C457.439 387.665 458.073 387.995 458.68 388.317C459.401 388.699 460.086 389.072 460.746 389.454C460.876 389.524 461.007 389.602 461.137 389.672C461.579 389.923 462.005 390.184 462.43 390.436C463.263 390.948 464.053 391.452 464.791 391.956C465.52 392.459 466.197 392.954 466.831 393.449C466.831 393.458 466.831 393.458 466.84 393.458C467.144 393.701 467.439 393.944 467.717 394.179C468.168 394.57 468.585 394.943 468.967 395.325C469.095 395.443 469.216 395.568 469.331 395.699C469.382 395.741 469.428 395.787 469.47 395.838C469.652 396.038 469.835 396.237 470.008 396.437C470.217 396.68 470.408 396.923 470.59 397.167C470.677 397.288 470.772 397.41 470.85 397.531C470.954 397.679 471.059 397.835 471.145 397.983C471.224 398.105 471.293 398.235 471.362 398.356C471.547 398.669 471.703 398.998 471.831 399.338C471.926 399.569 472.004 399.807 472.066 400.05C472.131 400.281 472.181 400.516 472.213 400.754Z" fill="black"/>
</g>
<defs>
<clipPath id="clip0_2_86">
<rect width="683" height="497" fill="white" transform="translate(0 0.000427246)"/>
</clipPath>
</defs>
</svg>
