<svg width="62" height="62" viewBox="0 0 62 62" fill="none" xmlns="http://www.w3.org/2000/svg">
<circle cx="30.9999" cy="31.0002" r="31" fill="#212121"/>
<path d="M37.6666 17.667H24.3332C20.6513 17.667 17.6666 20.6518 17.6666 24.3337V37.667C17.6666 41.3489 20.6513 44.3337 24.3332 44.3337H37.6666C41.3485 44.3337 44.3332 41.3489 44.3332 37.667V24.3337C44.3332 20.6518 41.3485 17.667 37.6666 17.667Z" stroke="#1EA0FF" stroke-width="2" stroke-linecap="round" stroke-linejoin="round"/>
<path d="M36.3332 30.1602C36.4978 31.2698 36.3082 32.4031 35.7916 33.3988C35.2749 34.3946 34.4574 35.202 33.4554 35.7064C32.4534 36.2107 31.3178 36.3863 30.2103 36.2081C29.1027 36.0298 28.0796 35.5069 27.2863 34.7137C26.4931 33.9205 25.9702 32.8973 25.792 31.7898C25.6137 30.6822 25.7893 29.5467 26.2936 28.5447C26.798 27.5426 27.6055 26.7251 28.6012 26.2085C29.5969 25.6918 30.7302 25.5023 31.8399 25.6668C32.9718 25.8347 34.0197 26.3621 34.8288 27.1712C35.6379 27.9804 36.1654 29.0283 36.3332 30.1602Z" stroke="#1EA0FF" stroke-width="2" stroke-linecap="round" stroke-linejoin="round"/>
<path d="M38.3332 23.667H38.3466" stroke="#1EA0FF" stroke-width="2" stroke-linecap="round" stroke-linejoin="round"/>
</svg>
