<svg width="341" height="422" viewBox="0 0 341 422" fill="none" xmlns="http://www.w3.org/2000/svg">
<path d="M280.089 421.521L280.935 419.958C269.595 413.825 255.482 406.192 248.11 393.667C240.843 381.32 240.68 364.553 247.685 349.91C253.645 337.448 264.595 326.283 279.349 317.622C282.259 315.913 285.314 314.294 288.269 312.728C295.41 308.944 302.794 305.03 308.883 299.477C317.27 291.83 323.615 278.996 318.886 267.564C317.33 263.915 314.783 260.776 311.533 258.502C308.283 256.228 304.461 254.911 300.5 254.7L300.4 256.476C304.028 256.668 307.53 257.874 310.508 259.956C313.486 262.038 315.821 264.914 317.247 268.256C321.642 278.879 315.612 290.934 307.685 298.163C301.763 303.564 294.479 307.424 287.436 311.157C284.465 312.732 281.392 314.36 278.448 316.088C263.387 324.93 252.194 336.36 246.08 349.143C238.824 364.312 239.015 381.719 246.577 394.569C254.2 407.521 268.555 415.284 280.089 421.521Z" fill="#F2F2F2"/>
<path d="M289.229 264.073C280.635 264.073 273.668 260.689 273.668 256.515C273.668 252.341 280.635 248.957 289.229 248.957C297.823 248.957 304.789 252.341 304.789 256.515C304.789 260.689 297.823 264.073 289.229 264.073Z" fill="#F2F2F2"/>
<path d="M276.78 313.866C268.187 313.866 261.22 310.483 261.22 306.309C261.22 302.134 268.187 298.751 276.78 298.751C285.374 298.751 292.341 302.134 292.341 306.309C292.341 310.483 285.374 313.866 276.78 313.866Z" fill="#F2F2F2"/>
<path d="M305.234 321.869C296.64 321.869 289.673 318.485 289.673 314.311C289.673 310.137 296.64 306.753 305.234 306.753C313.828 306.753 320.794 310.137 320.794 314.311C320.794 318.485 313.828 321.869 305.234 321.869Z" fill="#F2F2F2"/>
<path d="M260.775 363.66C252.182 363.66 245.215 360.276 245.215 356.102C245.215 351.928 252.182 348.544 260.775 348.544C269.369 348.544 276.336 351.928 276.336 356.102C276.336 360.276 269.369 363.66 260.775 363.66Z" fill="#F2F2F2"/>
<path d="M229.655 363.66C221.061 363.66 214.094 360.276 214.094 356.102C214.094 351.928 221.061 348.544 229.655 348.544C238.248 348.544 245.215 351.928 245.215 356.102C245.215 360.276 238.248 363.66 229.655 363.66Z" fill="#F2F2F2"/>
<path d="M195.229 410.68L184.328 410.679L179.143 368.632L195.231 368.633L195.229 410.68Z" fill="#8A565D"/>
<path d="M198.01 407.121L176.542 407.12H176.541C172.912 407.12 169.433 408.562 166.867 411.127C164.301 413.693 162.86 417.172 162.86 420.801V421.245L198.009 421.247L198.01 407.121Z" fill="#3F3D56"/>
<path d="M154.328 410.68L143.426 410.679L138.241 368.632L154.329 368.633L154.328 410.68Z" fill="#8A565D"/>
<path d="M157.108 407.121L135.64 407.12H135.639C132.011 407.12 128.531 408.562 125.965 411.127C123.4 413.693 121.958 417.172 121.958 420.801V421.245L157.107 421.247L157.108 407.121Z" fill="#3F3D56"/>
<path d="M228.306 244.532C227.414 243.576 226.742 242.437 226.338 241.194C225.934 239.951 225.807 238.634 225.966 237.337C226.126 236.04 226.568 234.793 227.262 233.685C227.955 232.577 228.883 231.635 229.981 230.924L222.407 200.066L237.96 205.608L242.768 234.062C243.84 235.984 244.169 238.233 243.693 240.381C243.217 242.53 241.97 244.43 240.188 245.72C238.405 247.011 236.211 247.603 234.021 247.384C231.831 247.165 229.798 246.15 228.306 244.532Z" fill="#8A565D"/>
<path d="M112.589 241.864C113.481 240.909 114.153 239.77 114.557 238.526C114.961 237.283 115.088 235.967 114.928 234.669C114.769 233.372 114.326 232.125 113.633 231.017C112.939 229.909 112.011 228.967 110.914 228.256L118.488 197.398L102.935 202.94L98.1266 231.394C97.0551 233.317 96.726 235.565 97.2016 237.714C97.6772 239.863 98.9246 241.762 100.707 243.053C102.49 244.343 104.684 244.935 106.874 244.716C109.064 244.497 111.097 243.482 112.589 241.864Z" fill="#8A565D"/>
<path d="M213.963 222.901L198.854 399.903L176.745 397.888L167.897 261.089L160.021 315.255L158.444 401.297L138.437 399.963L127.328 307.4L130.053 217.757L206.004 210.066L213.963 222.901Z" fill="#3F3D56"/>
<path d="M172.399 61.8327C159.736 61.8327 149.471 51.5675 149.471 38.9048C149.471 26.2421 159.736 15.9769 172.399 15.9769C185.062 15.9769 195.327 26.2421 195.327 38.9048C195.327 51.5675 185.062 61.8327 172.399 61.8327Z" fill="#8A565D"/>
<path d="M179.659 20.5625C179.659 20.5625 168.96 23.4285 163.419 24.5749C157.878 25.7213 158.451 22.4731 158.451 22.4731C158.451 22.4731 151.191 23.4285 151.573 22.6642C151.955 21.8999 148.516 17.8876 152.528 13.302C156.541 8.71638 155.394 5.27723 155.394 5.27723H158.833L159.789 3.93976H165.139C165.139 3.93976 171.053 -1.24676 181.562 0.281721C192.071 1.8102 204.498 5.85041 205.645 12.1556C205.8 13.0108 206.005 13.9609 206.242 14.9645C209.116 27.096 203.01 38.4468 196.678 49.186C195.122 51.8252 187.594 57.5804 187.786 53.6318C187.979 49.6832 194.563 40.8154 189.977 40.2422C185.392 39.669 177.558 28.0141 179.659 20.5625Z" fill="#2F2E41"/>
<path d="M196.258 69.6648H155.879L127.328 220.446C127.328 220.446 152.219 222.574 166.446 227.909C180.673 233.244 204.323 215.722 204.323 215.722L196.258 69.6648Z" fill="#1EA0FF"/>
<path d="M191.217 86.6921V69.6647L195.789 69.6368L229.192 90.8746L221.944 207.234C221.944 207.234 213.365 246.053 200.353 245.65C187.342 245.248 177.309 106.859 191.217 86.6921Z" fill="#3F3D56"/>
<path d="M218.462 94.089L229.192 90.8746C229.192 90.8746 237.135 93.1998 237.135 101.202C237.135 109.205 243.979 222.901 243.979 222.901L222.238 224.822L217.573 167.001L218.462 94.089Z" fill="#3F3D56"/>
<path d="M158.888 80.7515L161.027 69.6647L154.887 68.7477L132.658 77.6394C132.658 77.6394 112.651 223.908 121.543 228.353C130.435 232.799 136.438 229.355 136.438 229.355C136.438 229.355 165.684 121.475 160.508 106.893L158.888 80.7515Z" fill="#3F3D56"/>
<path d="M148.218 79.8622L144.424 78.211C144.424 78.211 133.289 72.6931 126.972 83.8356C120.654 94.9781 98.4246 219.462 98.4246 219.462L116.715 222.901L130.389 178.101L148.218 79.8622Z" fill="#3F3D56"/>
<path d="M0.88913 421.748H339.662C339.898 421.748 340.124 421.654 340.291 421.487C340.458 421.32 340.552 421.094 340.552 420.858C340.552 420.623 340.458 420.396 340.291 420.23C340.124 420.063 339.898 419.969 339.662 419.969H0.88913C0.65332 419.969 0.427124 420.063 0.260345 420.23C0.0935974 420.396 -3.05176e-05 420.623 -3.05176e-05 420.858C-3.05176e-05 421.094 0.0935974 421.32 0.260345 421.487C0.427124 421.654 0.65332 421.748 0.88913 421.748Z" fill="#E6E6E6"/>
</svg>
